<?xml version="1.0" encoding="utf-8"?>
<!-- Generator: Adobe Illustrator 15.0.2, SVG Export Plug-In . SVG Version: 6.00 Build 0)  -->
<!DOCTYPE svg PUBLIC "-//W3C//DTD SVG 1.1//EN" "http://www.w3.org/Graphics/SVG/1.1/DTD/svg11.dtd">
<svg version="1.1" id="Layer_1" xmlns="http://www.w3.org/2000/svg" xmlns:xlink="http://www.w3.org/1999/xlink" x="0px" y="0px"
	 width="421.073px" height="115.884px" viewBox="0 0 421.073 115.884" enable-background="new 0 0 421.073 115.884"
	 xml:space="preserve">
<g fill="#fff" >
	<path fill="#fff" d="M182.526,16.646c-1.275,1.122-2.726,1.682-4.35,1.682c-2.012,0-3.752-1.082-5.22-3.248
		c-0.853-1.624-1.896-2.436-3.133-2.436c-5.491,0-12.684,5.26-21.575,15.776c-3.326,3.944-6.362,7.812-9.106,11.6
		c-2.746,3.79-5.202,7.58-7.366,11.368c-2.708,4.872-5.278,9.88-7.714,15.022c-2.436,5.144-4.698,10.498-6.786,16.065
		c-4.64,12.143-7.656,23.084-9.048,32.829l-0.928,0.579c-5.956-8.971-8.932-18.52-8.932-28.651c0-7.192,1.584-16.356,4.756-27.492
		l1.508-3.248c-0.696,1.16-1.316,2.244-1.856,3.248c-9.822,18.56-16.164,37.082-19.024,55.564l-1.276,0.579
		c-5.8-9.125-8.7-18.676-8.7-28.651c0-4.716,0.464-9.28,1.392-13.688l3.364-16.008c2.628-12.372,3.944-20.84,3.944-25.404
		c0-9.512-2.94-16.974-8.816-22.388c-5.878-5.258-13.534-7.888-22.968-7.888c-13.456,0-24.786,5.182-33.988,15.544
		C7.732,27.454,3.248,39.208,3.248,52.664c0,10.673,2.9,19.72,8.7,27.144c6.418,8.045,14.808,12.064,25.172,12.064
		c9.82,0,18.172-3.557,25.056-10.672C69.058,74.086,72.5,65.58,72.5,55.68c0-6.804-1.972-12.876-5.916-18.212
		c-4.254-5.876-9.706-8.816-16.356-8.816c-4.95,0-10.518,2.398-16.704,7.192l-0.812-1.508c5.18-5.026,11.02-7.54,17.516-7.54
		c7.268,0,13.262,3.172,17.98,9.512c4.408,5.8,6.612,12.412,6.612,19.836c0,10.208-3.752,19.064-11.252,26.564
		c-7.424,7.424-16.24,11.137-26.448,11.137c-10.828,0-19.836-4.293-27.028-12.877C3.364,73.004,0,63.452,0,52.316
		c0-13.764,4.988-25.944,14.964-36.54C25.016,5.26,36.926,0,50.692,0c11.444,0,20.956,3.596,28.536,10.788
		c7.578,7.192,11.368,16.472,11.368,27.84c0,5.26-0.658,11.408-1.972,18.444l-3.016,15.544c-3.016,15.544-4.524,25.752-4.524,30.624
		c0,3.017,0.464,5.8,1.392,8.352c3.866-20.105,13.34-43.344,28.42-69.715l1.856-3.248l1.856,0.812
		c-0.388,2.63-0.87,5.608-1.45,8.932c-0.58,3.326-1.18,7-1.798,11.02c-0.464,2.398-1.026,5.356-1.682,8.875
		c-0.658,3.52-1.412,7.638-2.262,12.354c-1.624,9.049-2.436,16.24-2.436,21.576c0,3.17,0.58,6.302,1.74,9.396
		c1.778-8.044,4.002-15.987,6.67-23.837c2.668-7.849,5.858-15.641,9.57-23.375c8.12-17.244,17.284-31.088,27.493-41.528
		c9.666-9.898,18.636-14.848,26.911-14.848c1.7,0,3.209,0.348,4.524,1.044c1.7,0.774,2.552,1.972,2.552,3.596
		C184.44,14.192,183.802,15.526,182.526,16.646z"/>
	<path fill="#fff" d="M172.839,83.173c-10.287,14.229-20.844,21.344-31.669,21.344c-4.254,0-7.58-1.334-9.976-4.002
		c-2.398-2.668-3.596-6.129-3.596-10.383c0-5.953,2.436-11.908,7.308-17.863c5.104-6.187,10.632-9.28,16.587-9.28
		c2.553,0,4.795,0.696,6.729,2.088c1.932,1.392,2.9,3.326,2.9,5.8c0,4.719-3.211,9.164-9.629,13.34
		c-4.484,3.017-9.783,5.453-15.891,7.309c0,6.574,2.86,9.859,8.584,9.859c5.875,0,12.334-3.75,19.372-11.252
		c2.396-2.474,4.756-5.258,7.076-8.352c2.32-3.092,4.6-6.496,6.844-10.208c0.232,0.696,0.348,1.16,0.348,1.392
		C177.826,75.284,176.164,78.688,172.839,83.173z M150.451,65.772c-3.943,0-7.424,3.016-10.44,9.048
		c-2.244,4.563-3.712,9.241-4.408,14.036c4.948-1.16,9.124-3.286,12.528-6.381c4.098-3.633,6.148-7.693,6.148-12.18
		C154.279,67.28,153.003,65.772,150.451,65.772z"/>
	<path fill="#fff" d="M208.101,84.216c-9.743,13.381-17.672,20.068-23.779,20.068c-3.712,0-6.496-1.469-8.353-4.408
		c-1.548-2.628-2.319-5.876-2.319-9.744c0-3.711,1.392-11.56,4.176-23.547c2.164-9.125,5.528-18.405,10.092-27.841
		c4.176-8.584,7.926-13.958,11.252-16.124l0.812-0.116c1.235,1.238,1.855,4.022,1.855,8.352c0,16.396-6.458,32.906-19.372,49.531
		c-0.773,3.326-1.16,6.574-1.16,9.744c0,6.652,1.856,9.977,5.568,9.977c3.634,0,8.7-4.021,15.196-12.064
		c1.313-1.546,2.938-3.712,4.872-6.496c1.932-2.783,4.252-6.147,6.96-10.092l0.348,2.088C214.25,74.937,212.2,78.494,208.101,84.216
		z M194.645,32.828c-5.878,11.368-9.783,25.676-11.716,42.92c8.506-11.058,12.761-21.846,12.761-32.364
		C195.69,40.446,195.341,36.928,194.645,32.828z"/>
	<path fill="#fff" d="M252.065,81.548c-10.596,15.312-21.46,22.969-32.597,22.969c-4.254,0-7.695-1.334-10.323-4.002
		c-2.63-2.668-3.944-6.129-3.944-10.383c0-6.031,2.474-11.869,7.424-17.516c5.723-6.418,11.601-9.628,17.632-9.628
		c2.629,0,4.795,0.62,6.496,1.856c2.011,1.392,3.017,3.326,3.017,5.799c0,2.013-0.736,3.675-2.204,4.988
		c-1.47,1.316-3.21,1.973-5.22,1.973c-1.549,0-2.708-0.58-3.48-1.74c2.86-1.236,4.292-3.208,4.292-5.916
		c0-2.86-1.238-4.292-3.712-4.292c-2.94,0-5.84,1.856-8.7,5.567c-2.166,2.94-3.868,6.11-5.104,9.513
		c-1.471,3.712-2.204,7.192-2.204,10.44c0,6.805,3.054,10.207,9.164,10.207c9.819,0,20.84-9.859,33.06-29.58
		c0.154,0.465,0.232,0.929,0.232,1.393C255.893,75.052,254.617,77.837,252.065,81.548z"/>
	<path fill="#fff" d="M299.623,81.433c-2.244,3.094-4.254,5.703-6.032,7.83c-1.779,2.127-3.325,3.848-4.64,5.162
		c-3.172,3.016-5.762,4.523-7.772,4.523c-1.701,0-3.172-0.695-4.407-2.088c-5.183,5.182-10.519,7.771-16.009,7.771
		c-4.485,0-8.043-1.315-10.672-3.943c-2.63-2.629-3.943-6.187-3.943-10.672c0-6.418,2.706-12.488,8.12-18.213
		c5.412-5.875,11.29-8.815,17.632-8.815c3.866,0,7.036,1.47,9.512,4.407c2.396,2.863,3.596,6.343,3.596,10.441
		c0,4.1-1.508,8.855-4.523,14.268c0.386,1.548,1.352,2.32,2.899,2.32c1.778,0,4.33-2.011,7.656-6.033
		c1.393-1.623,3.19-3.885,5.395-6.785c2.203-2.9,4.813-6.477,7.829-10.73c0.232,1.16,0.349,1.624,0.349,1.393
		C304.611,73.892,302.947,76.948,299.623,81.433z M271.435,65.425c-2.862,0-5.763,1.701-8.7,5.104
		c-2.088,2.398-3.868,5.376-5.336,8.932c-1.856,4.408-2.784,8.624-2.784,12.645c0,6.728,2.436,10.092,7.308,10.092
		c3.788,0,7.849-3.248,12.181-9.744c-0.464-1.236-0.696-2.668-0.696-4.292c0-4.716,1.855-9.588,5.568-14.616
		C277.968,68.132,275.455,65.425,271.435,65.425z"/>
	<path fill="#fff" d="M373.63,83.984c-2.708,3.712-5.104,6.786-7.192,9.222s-3.79,4.312-5.104,5.626
		c-3.636,3.404-7.116,5.104-10.44,5.104c-1.702,0-3.113-0.58-4.233-1.74c-1.122-1.16-1.683-2.629-1.683-4.408
		c0-3.248,1.314-8.236,3.944-14.964c2.628-6.882,3.943-11.058,3.943-12.528c0-1.546-0.812-2.32-2.436-2.32
		c-3.404,0-9.474,7.154-18.212,21.461c-0.62,1.084-1.374,2.455-2.262,4.117c-0.891,1.664-1.876,3.617-2.958,5.858
		c-1.16,2.397-2.166,3.674-3.017,3.828l-3.943,0.58h-0.349c-0.852,0-1.275-0.194-1.275-0.58c0-0.54,0.115-1.044,0.348-1.508
		l7.656-27.841c0.54-1.855,0.812-3.17,0.812-3.943c0-1.546-0.62-2.32-1.855-2.32c-3.326,0-8.973,6.844-16.937,20.532
		c-1.702,2.784-3.558,6.458-5.567,11.021c-1.16,2.476-2.051,3.789-2.668,3.943l-4.988,0.696h-0.349
		c-0.541,0-0.812-0.231-0.812-0.696c0-0.85,0.038-1.392,0.116-1.624l10.672-34.915c0.231-0.851,0.812-1.393,1.74-1.625l4.64-1.044
		h0.58c0.618,0,0.928,0.349,0.928,1.044c0,0.311-0.04,0.542-0.116,0.696l-7.191,23.548c2.088-3.712,3.924-6.824,5.51-9.338
		c1.584-2.512,2.918-4.504,4.002-5.975c5.104-7.035,9.588-10.555,13.456-10.555c4.176,0,6.264,1.855,6.264,5.567
		c0,2.012-1.739,8.856-5.22,20.532c10.44-17.168,18.599-25.752,24.477-25.752c3.865,0,5.8,2.203,5.8,6.611
		c0,1.78-0.58,4.332-1.74,7.656l-3.596,10.324c-1.393,4.564-2.088,7.424-2.088,8.584c0,1.701,0.85,2.552,2.552,2.552
		c1.855,0,4.832-2.319,8.932-6.96c1.778-2.01,3.944-4.716,6.496-8.12c2.552-3.401,5.568-7.54,9.048-12.411
		c0.076,0.155,0.116,0.695,0.116,1.623C379.43,75.246,377.497,78.726,373.63,83.984z"/>
	<path fill="#fff" d="M416.085,83.173c-10.286,14.229-20.843,21.344-31.668,21.344c-4.254,0-7.58-1.334-9.977-4.002
		c-2.397-2.668-3.596-6.129-3.596-10.383c0-5.953,2.436-11.908,7.308-17.863c5.104-6.187,10.633-9.28,16.588-9.28
		c2.553,0,4.794,0.696,6.729,2.088c1.932,1.392,2.899,3.326,2.899,5.8c0,4.719-3.21,9.164-9.628,13.34
		c-4.485,3.017-9.783,5.453-15.892,7.309c0,6.574,2.86,9.859,8.584,9.859c5.876,0,12.334-3.75,19.372-11.252
		c2.396-2.474,4.756-5.258,7.076-8.352c2.319-3.092,4.6-6.496,6.844-10.208c0.232,0.696,0.348,1.16,0.348,1.392
		C421.073,75.284,419.41,78.688,416.085,83.173z M393.697,65.772c-3.943,0-7.424,3.016-10.439,9.048
		c-2.244,4.563-3.712,9.241-4.408,14.036c4.948-1.16,9.124-3.286,12.528-6.381c4.098-3.633,6.147-7.693,6.147-12.18
		C397.525,67.28,396.25,65.772,393.697,65.772z"/>
</g>
</svg>
