<?xml version="1.0" encoding="UTF-8" standalone="no"?>
<!-- Created with Inkscape (http://www.inkscape.org/) -->

<svg
   xmlns:dc="http://purl.org/dc/elements/1.1/"
   xmlns:cc="http://creativecommons.org/ns#"
   xmlns:rdf="http://www.w3.org/1999/02/22-rdf-syntax-ns#"
   xmlns:svg="http://www.w3.org/2000/svg"
   xmlns="http://www.w3.org/2000/svg"
   xmlns:sodipodi="http://sodipodi.sourceforge.net/DTD/sodipodi-0.dtd"
   xmlns:inkscape="http://www.inkscape.org/namespaces/inkscape"
   width="346.53381"
   height="256.01257"
   id="svg2"
   version="1.1"
   inkscape:version="0.48.5 r10040"
   sodipodi:docname="ThankYou.png">
  <defs
     id="defs4" />
  <sodipodi:namedview
     id="base"
     pagecolor="#ffffff"
     bordercolor="#666666"
     borderopacity="1.0"
     inkscape:pageopacity="0.0"
     inkscape:pageshadow="2"
     inkscape:zoom="2.0233665"
     inkscape:cx="173.25717"
     inkscape:cy="127.99852"
     inkscape:document-units="px"
     inkscape:current-layer="layer1"
     showgrid="false"
     inkscape:window-width="1366"
     inkscape:window-height="705"
     inkscape:window-x="1912"
     inkscape:window-y="-8"
     inkscape:window-maximized="1"
     fit-margin-top="0"
     fit-margin-left="0"
     fit-margin-right="0"
     fit-margin-bottom="0" />
  <metadata
     id="metadata7">
    <rdf:RDF>
      <cc:Work
         rdf:about="">
        <dc:format>image/svg+xml</dc:format>
        <dc:type
           rdf:resource="http://purl.org/dc/dcmitype/StillImage" />
        <dc:title></dc:title>
      </cc:Work>
    </rdf:RDF>
  </metadata>
  <g
     inkscape:label="Layer 1"
     inkscape:groupmode="layer"
     id="layer1"
     transform="translate(-195.83341,-280.37416)">
    <path
       style="fill:#000000"
       d="m 493.46875,280.375 c -7.92679,0.0451 -16.05372,1.91921 -23.78125,5.65625 -4.72125,2.28319 -8.95037,5.62684 -15.53125,12.21875 -7.80919,7.82229 -9.78605,10.51604 -14.25,19.53125 -2.8485,5.75272 -7.15963,16.61655 -9.59375,24.15625 -5.07633,15.72392 -8.24686,22.06089 -13.625,27.3125 -7.38407,7.21035 -7.15515,2.31557 0.75,-15.625 6.12566,-13.90207 6.61546,-15.39403 5.84375,-18.46875 -1.04899,-4.17953 -9.72715,-5.46463 -15.40625,2.875 l -2.96875,4.34375 c 0,0 1.26488,-2.67616 1.5,-4.125 0.68555,-4.2245 -2.7854,-3.94876 -4.09375,-2.09375 -4.26112,2.55946 -7.57011,14.64487 -12,25.78125 -3.26654,8.21182 -10.9388,18.45466 -12.875,16.625 -2.28144,-2.15592 1.44391,-13.99192 6.90625,-24.625 3.11307,-6.05995 9.75835,-16.32015 3.21875,-11.625 0.37398,-1.4851 -3.75449,-2.75 -6.1875,-2.75 -5.46461,0 -10.88153,2.70392 -16.34375,8.15625 -4.51895,4.51077 -10.35361,14.83574 -12.4375,22 -1.51935,5.22344 -6.8334,13.076 -10.4375,15.4375 -2.31212,1.51526 -2.54284,1.51709 -3.125,0 -0.60777,-1.5838 0.47774,-4.2776 9.6875,-24.0625 3.22928,-6.93732 4.08492,-9.79353 3.5625,-11.875 -0.63522,-2.53093 -0.97833,-2.70368 -4.59375,-2.21875 -4.46162,0.59843 -7.43121,2.65797 -12.46875,8.6875 -1.94036,2.32247 -3.53125,3.83891 -3.53125,3.34375 0,-1.74477 7.24933,-18.90579 11.21875,-26.5625 4.66193,-8.9925 3.59384,-8.68712 19.34375,-5.625 15.64618,3.04198 31.90014,3.00576 39.875,-0.0937 3.25535,-1.26523 7.86785,-4.08546 10.25,-6.28125 15.57902,-13.02453 -2.07032,-21.18951 -17.1875,-22.28125 -15.07856,-0.76798 -29.68591,5.36921 -41.65625,14.15625 l -4.90625,3.625 -8.21875,-1.375 c -11.57349,-1.92569 -31.58702,-1.70683 -39.71875,0.4375 -22.65966,5.97533 -42,25.21519 -42,41.78125 0,5.03987 0.35389,6.03271 2.65625,7.84375 3.1831,2.50383 5.27075,2.60474 10.15625,0.4375 l 3.6875,-1.65625 -3.8125,-0.71875 c -8.30838,-1.53202 -11.85802,-9.82511 -7.6875,-18 5.22948,-10.25063 18.88654,-19.43295 33.28125,-22.40625 7.43409,-1.53556 28.94358,-2.20884 32.09375,-1 1.14001,0.43746 -1.46246,0.86871 -6.71875,6.125 -10.75142,10.75143 -13.41403,18.23614 -22.5625,38.3125 -14.05571,30.84532 -20.02573,41.33957 -26.8125,46.9375 -10.37434,8.55703 -28.46001,9.52599 -37.4375,2.03125 l -3.25,-2.6875 2.46875,-1.34375 c 1.35116,-0.73866 5.01032,-1.37725 8.125,-1.40625 4.44086,-0.0414 6.33018,0.45598 8.84375,2.3125 3.44122,2.54169 5.21893,1.70521 4.25,-2 -0.9958,-3.80794 -11.39671,-4.35828 -20.03125,-1.0625 l -5.28125,2.03125 -2.09375,-4.09375 c -2.98557,-5.8522 -3.5726,-14.58941 -1.375,-20.34375 3.62058,-9.48034 11.08561,-14.7325 17.78125,-12.5 2.94944,0.98342 3.05921,0.95507 1.28125,-0.40625 -1.67774,-1.2846 -4.20683,-1.81086 -8.0625,-1.6875 -8.77471,0.28073 -16.50204,6.19368 -18.96875,14.5 -0.82569,2.78041 -1.53125,6.0878 -1.53125,7.34375 0,3.89977 3.04277,11.67173 6.0625,15.5 l 2.90625,3.65625 -7.0625,5.78125 c -11.82443,9.67393 -19.25018,21.92434 -22.3125,36.75 -1.91584,9.27503 -1.9239,11.29045 -0.0625,20.15625 3.68787,17.56528 17.06724,34.488 33.46875,42.28125 10.44653,4.96372 16.29469,6.21875 28.90625,6.21875 26.29421,0 47.34468,-12.1765 67.59375,-39.125 9.30642,-12.38546 17.24944,-28.06651 28.09375,-55.4375 4.78097,-12.06715 9.98633,-24.58379 11.5625,-27.84375 3.49982,-7.23865 3.49429,-7.59375 0.28125,-7.59375 -4.67111,0 -6.30907,1.93475 -13.09375,15.28125 -10.63969,20.92984 -30.01968,48.41782 -32.4375,46 -1.51148,-1.51148 1.08762,-8.50313 10.25,-27.46875 4.9689,-10.28535 9.26646,-20.51159 9.5625,-22.71875 0.48602,-3.62357 0.30082,-4.14473 -2.125,-5.25 -2.12238,-0.96706 -3.98468,-0.94987 -8.875,0.0312 -8.80668,1.76683 -22.05382,5.82722 -30.21875,9.28125 -33.62164,14.22308 -52.3314,46.0738 -40.90625,69.59375 1.3962,2.87423 3.81156,6.13673 5.375,7.25 3.00708,2.14123 7.5113,2.68156 8.53125,1.03125 0.37287,-0.60332 -0.48974,-0.7833 -2.21875,-0.4375 -4.87458,0.97492 -6.70699,-2.24429 -7.09375,-12.4375 -1.04049,-27.42261 13.36422,-50.02556 40.3125,-63.1875 9.3575,-4.57034 22.55048,-8.96875 26.875,-8.96875 3.2547,0 1.35776,6.09894 -7.75,25 -4.63795,9.625 -9.07277,19.3 -9.875,21.5 -3.6819,10.097 -2.98837,15.5 2.03125,15.5 3.744,0 15.64576,-12.39609 24.65625,-25.71875 3.80909,-5.63201 7.13559,-10.05192 7.375,-9.8125 1.29201,1.29201 -21.25308,47.37028 -28.90625,59.09375 -9.32988,14.29195 -22.07029,25.00821 -37.125,31.25 -9.10278,3.77408 -26.89194,4.34251 -38.46875,1.21875 -14.12093,-3.81023 -23.6399,-11.55411 -30.65625,-24.90625 -11.31397,-21.53054 -10.42362,-46.30199 2.375,-65.4375 4.77148,-7.13397 11.94881,-14.6875 13.96875,-14.6875 0.53512,0 2.42328,0.90811 4.21875,2 1.79547,1.09189 6.53527,2.70473 10.53125,3.59375 6.08212,1.35315 8.3854,1.41893 14.03125,0.4375 8.57679,-1.49093 17.25503,-5.62766 24.15625,-11.53125 25.13405,-21.86977 27.11826,-69.58611 57.90625,-86.5 2.72057,0 2.75161,-0.042 -0.71875,5.84375 -1.59526,2.70556 -5.91931,11.60011 -9.59375,19.78125 -15.25742,33.97062 -19.00822,41.74766 -22.6875,47 -4.28645,6.11911 -4.07762,6.2231 4.96875,2.3125 4.10449,-1.7743 4.55823,-2.44499 10.6875,-15.375 9.25356,-19.52088 18.2966,-32.09362 20.53125,-28.53125 1.22137,1.94704 0.66613,3.5745 -5.5625,16.03125 -8.08669,16.17271 -9.23941,22.9375 -3.90625,22.9375 3.21486,0 11.81531,-5.35162 14.9375,-9.3125 2.25922,-2.86608 2.49,-2.95998 2.5,-1 0.006,1.19252 0.29115,2.88002 0.625,3.75 2.13027,4.53716 16.1104,-0.58283 19.03125,-9.5 -1.37889,6.10604 3.50325,8.45338 11.375,5.5625 7.95125,-4.09634 8.50756,-6.97036 15.5625,-21.46875 7.41342,-15.23512 13.49697,-22.03125 16,-22.03125 2.275,0 1.13898,4.50585 -4.0625,16 -1.96345,4.36378 -7.16595,22.55215 -0.53125,23.34375 8.49453,1.07042 17.17873,-6.2942 21.25,-17.59375 1.54576,-1.68288 6.59937,7.94334 11.21875,26.25 3.00963,11.92719 6.54507,24.01149 9.40625,32.46875 -7.58004,3.88622 -15.94539,6.80381 -24.9375,8.21875 -15.55424,1.20738 0.87618,-17.91648 2.6875,-29.9375 2.97215,-8.13683 5.375,-15.02199 5.375,-15.28125 0,-0.25925 -1.04292,-0.46875 -2.34375,-0.46875 -3.54546,0 -7.14583,3.37587 -8.53125,8 -4.08533,13.6356 -14.64555,33.76735 -19.21875,36.59375 -1.95286,1.20693 0.10982,-7.47472 4.78125,-20.09375 5.03831,-13.61008 6.07462,-20.07366 4.09375,-21.5 -3.21732,-2.31665 -8.50504,1.65159 -10.28125,5.03125 -0.75401,1.43468 -3.15403,2.78674 -4.59375,3.53125 -2.36532,1.22315 -2.92946,1.12551 -5.9375,-1.09375 -5.26341,-3.88323 -9.10705,-3.32466 -15,2.1875 -8.22344,7.69206 -13.914,21.65245 -13.9375,34.1875 -0.0149,3.93718 0.0979,11.82587 6.9375,12.15625 5.79488,0.27992 9.6013,-3.95668 12.75,-7.8125 6.20318,-7.59627 12.87355,-24.60602 12.90625,-33.75 5.03969,-2.25579 8.60899,-8.4375 9.625,-8.4375 0.81605,0 -0.70648,5.25059 -5.125,17.65625 -4.61866,12.96756 -5.77003,19.23463 -4.15625,22.25 2.30947,4.31529 7.68048,1.31033 14.875,-8.28125 l 2.15625,-2.875 0,4.03125 c 0.0417,7.14316 3.79155,8.3919 12.3125,8.53125 7.48,-0.34995 17.03569,-4.01726 26.625,-9.78125 1.05599,2.95281 1.97274,5.29784 2.6875,6.6875 0.7639,1.48519 1.38,3.06019 1.375,3.5 -0.005,0.43981 -5.83864,0.86392 -12.96875,0.96875 -31.93036,0.46945 -62.12063,8.14463 -80.5,20.4375 -25.25592,16.89219 -35.31881,40.65185 -25.59375,60.40625 4.94908,10.05302 14.12447,16.95509 27.1875,20.5 9.27167,2.51605 24.44702,2.09159 36.375,-1 8.69303,-2.25314 24.72102,-9.91221 36.3125,-17.375 21.53837,-13.86674 34.1232,-37.83517 27.28125,-51.96875 -2.3996,-4.95692 -6.67887,-7.6875 -12.09375,-7.6875 l -3.21875,0 3.5625,3.96875 c 8.59181,9.5101 6.94832,24.9147 -4.3125,40.25 -6.87424,9.36154 -16.54578,16.98975 -29.53125,23.34375 -15.32345,7.498 -24.28513,9.83945 -38,9.90625 -19.09576,0.093 -31.47668,-5.65327 -37.125,-17.15625 -2.52785,-5.14805 -2.84975,-6.84844 -2.78125,-14.8125 0.0684,-7.95541 0.44204,-9.75442 3.21875,-15.5 7.07046,-14.63025 21.88146,-28.29371 40.6875,-37.53125 17.91223,-8.7985 39.04776,-13.4019 61.65625,-13.4375 l 11.625,-0.0312 4.28125,7.25 c 5.35869,9.09653 17.48187,21.2418 25.4375,25.4375 9.28255,4.8955 17.62985,7.3125 25.0625,7.3125 5.15355,-0.0119 14.29179,-2.56623 11.375,-11.6875 -2.30927,-6.11198 -12.76661,-14.489 -25.59375,-20.5 -8.1173,-3.80389 -25.10545,-8.8125 -29.90625,-8.8125 -1.81078,0 -2.79373,-1.05053 -4.4375,-4.75 -1.36189,-3.06506 -3.01577,-7.41227 -4.78125,-12.46875 8.63023,-6.1519 16.85486,-13.80584 23.1875,-22.0625 10.8993,0.11271 22.76107,-4.05291 33.96875,-12.0625 28.69204,-20.50481 35.31876,-66.11874 12.875,-88.5625 -9.55581,-9.55581 -22.25744,-14.51273 -35.46875,-14.4375 z M 489.75,282.25 c 0.88268,-0.0115 1.84778,-0.002 2.9375,0 8.10155,0.0154 10.31828,0.40773 15,2.59375 17.46181,8.15336 27.02612,26.71418 25.65625,49.875 -0.63176,10.68133 -2.47538,17.71213 -6.90625,26.5 -9.54333,18.92756 -25.95531,31.33846 -42.78125,32.3125 -0.0626,0.004 -0.12486,-0.003 -0.1875,0 9.61036,-13.28819 14.13295,-27.92418 7.3125,-40.3125 -1.7226,-3.12885 -3.65607,-6.3645 -7.96875,-8.59375 -5.83946,-2.55161 -8.68318,1.18991 -5.625,2.6875 4.07358,1.91402 6.65366,1.67972 10.15625,6.40625 7.18151,9.69099 3.86429,25.39079 -6.625,39.90625 -3.48381,0.0175 -6.6928,-0.29889 -8.34375,-0.84375 -4.30382,-1.42039 -8.6875,-6.26129 -8.6875,-9.625 0,-2.74376 -2.69035,-3.39211 -3.65625,-0.875 -1.83784,4.78932 6.00685,10.99516 16.03125,12.65625 1.11612,0.18495 2.26375,0.28867 3.40625,0.375 -5.52059,7.20634 -12.7943,14.02602 -21.4375,19.59375 -2.49027,-7.31787 -5.16287,-15.81907 -7.5,-24.1875 -2.65192,-9.41676 -7.06586,-21.47329 -14.96875,-32.3125 16.54252,-6.31602 20.78247,-11.26095 22.71875,-20.15625 2.10573,-9.67374 -6.50274,-11.92823 -14.75,-3.875 -2.10966,2.06003 -3.84375,3.2491 -3.84375,2.625 0,-0.6241 1.38109,-4.86248 3.0625,-9.4375 7.43566,-20.2319 19.19544,-34.82876 33.9375,-42.125 5.19546,-2.57138 6.88376,-3.10707 13.0625,-3.1875 z m -97.125,18.5625 c 8.43204,-0.20967 15.87676,1.50176 19.8125,5.4375 5.4344,5.51852 2.67119,10.20983 -4.0625,14.53125 -6.22546,2.82646 -24.20379,2.54905 -41.125,-0.65625 -7.12342,-1.34936 -13.19842,-2.72057 -13.5,-3.03125 -0.30157,-0.31068 1.24297,-2.12628 3.4375,-4.03125 8.67329,-7.52892 23.11375,-11.94355 35.4375,-12.25 z m 56.65625,35.03125 c 3.86816,0 3.23078,6.90785 -5.8125,14.03125 -2.13079,1.67843 -12.90558,8.67897 -7.53125,-1.125 2.14716,-6.14074 10.89797,-12.90625 13.34375,-12.90625 z m -70.1875,9.09375 c 0.97644,0.0582 1.9397,0.34368 2.875,0.9375 -1.34138,2.54943 -7.36561,12.15523 -10.09375,18.03125 -0.68968,1.47121 -11.39602,24.12371 -13.1875,15.0625 0.20319,-11.90741 10.96729,-34.59405 20.40625,-34.03125 z m 8.0625,48.1875 c 0.23574,-0.0172 0.43546,0.0391 0.625,0.15625 3.34873,2.06964 -5.62795,29.7639 -12.625,38.9375 -5.60593,7.34976 -7.15841,2.14988 -3.40625,-11.5 3.44041,-12.5158 11.87022,-27.3362 15.40625,-27.59375 z m 81.4375,44.09375 c 4.02551,-0.32825 20.68547,4.82548 29.71875,9.5 9.50453,4.91837 15.84689,10.06536 19.53125,15.875 3.8383,6.12965 2.93702,11.45608 -7.34375,11.125 -8.98445,0 -18.75945,-4.84956 -27.40625,-13.625 -5.55982,-5.64254 -15.40625,-19.94028 -15.40625,-22.375 0,-0.28812 0.33118,-0.45311 0.90625,-0.5 z"
       id="path2996"
       inkscape:connector-curvature="0" />
  </g>
</svg>
