<?xml version="1.0" encoding="utf-8"?>
<!-- Generator: Adobe Illustrator 19.2.0, SVG Export Plug-In . SVG Version: 6.00 Build 0)  -->
<svg version="1.1" id="Layer_1" xmlns="http://www.w3.org/2000/svg" xmlns:xlink="http://www.w3.org/1999/xlink" x="0px" y="0px"
   viewBox="0 0 171.5 61.9" style="enable-background:new 0 0 171.5 61.9;" xml:space="preserve">
<style type="text/css">
  .st0{fill:#fff;}
</style>
<g>
  <g>
    <path class="st0" d="M107,36.3c-1,0.5-1,0.2-0.9,0c0.1-0.2,0.7-1.1,0.4-0.9c-0.3,0.2-2.3,0.9-2.3,0.9c-3.4,1.1-6.4,0.2-7.1-0.3
      c-0.7-0.5,0.8-2.8,0.8-2.8c1.3-2.2,5.5-5.5,6.9-7c1.5-1.5,2.5-2.3,4.1-3.6c1.6-1.3,0.4-2.8-0.7-3.2c-1.1-0.4-1.7,0-2.4,0.9
      c-0.7,0.9-1,1.5-2,2.3c-1,0.8-5,4.7-5,4.7s4.9-11.5,5-12.4c0.1-0.8-0.8-1.7-2.1-2c-1.3-0.4-1,1-1.1,1.7c-0.2,0.7-1.9,4.9-1.9,4.9
      c-1.8,3.8-6.5,18-6.5,18s-1.2,0.8-1.8,0.9c-0.6,0.1-0.8-1-0.7-2.1c0.1-1.2,0.6-4.5,0.6-4.5c0.9-4.3-1.1-4.7-2.3-4.4
      c-1.2,0.2-3,3.9-3,3.9s-0.2,0.1,0-0.6c0.2-0.7-1.4-1.3-2.1-1.3c-0.8,0-0.9,0.7-0.9,0.7l-0.7,3.8c0,0-0.5,0.9-2.5,3.1
      c-2,2.3-3.3,1.4-3.3,1.4l1.1-4c0.2-1.5-1.5-2.3-3.1-3.2c-1.6-0.9-2,1.3-2,1.3l-3.3,5.6l-1.1,1c-1.2,0.3-4.3,3.6-4.3,3.6l0.5-1.6
      c1.9-7.2,3-11.1,3-11.1c-2-7.2-9.4,3.8-9.4,3.8c4.9-13.3,9.6-20.4,9.6-20.4c2.7-4.2-0.3-4.4-0.3-4.4c-1.4-0.8-2,1.6-2,1.6
      C54.4,17.4,46,21.8,46,21.8l1.8-3.9c1.4-1.4,0.2-2.8-0.8-3c-0.9-0.2-1.2,1.5-1.2,1.5L43,23.3c-10.9,6.4-26,10.2-26,10.2
      C5.7,35.8,2.6,31.3,2.6,31.3c-1.3-1.7-2.1-0.9-2.1-0.9C-1.2,32.5,2,33.6,2,33.6c7.2,4.2,18,1.8,18,1.8c9.1-1.3,21-7.8,21-7.8
      S33.2,46.5,31,52c-2.1,5.5-3.9,7.8-3.9,7.8C26,60.9,27,61.5,27,61.5c2.2,1.1,2.8-0.5,2.8-0.5l14.8-35.1
      c0.9-0.4,16.8-10.1,16.8-10.1c-2.4,4.1-12.6,30-13.5,33.4c-0.9,3.4,1,4,2.1,4.3c1.1,0.3,1.3-0.6,1.3-0.6l0.8-2.6
      c1.5-5.7,7.9-15.7,9.2-17.6c1.3-1.9,1.5-0.9,1.5-0.9s-0.4,1.8-1.9,7c-1.5,5.2-0.8,6.8-0.8,6.8c2.5,3.4,5.2-0.4,6-1.8
      c0.8-1.4,1.4-3.1,1.4-3.1l0.2,0.5c1.4,2.7,2.9,1.8,4.1,0.9c1.2-1,1.9-3.4,2.1-2.8c0.2,0.6,0.5,1.2,0.5,1.2
      c3.1,3.3,5.5-2.4,5.5-2.4c-0.6,1.9,0.1,2.8,0.1,2.8c1,1.7,2.5,0.7,2.5,0.7c0.5-1.9,1.3-3.8,1.3-3.8c2.4-6,3.4-5.4,3.4-5.4
      c-0.5,3.3-0.2,4.9-0.2,4.9c1.1,5.1,5,2.8,5,2.8c0.9,2,2.7,1,2.7,1l0.8-3.1c3.4,2.8,7.3,1.4,7.3,1.4c6.5-2.1,5.9-4,5.9-4
      S108,35.7,107,36.3z M72.4,37.7c-0.3,1-1.3,1.9-1.3,1.9c-0.9,1.1-1.1,0.2-1.1,0.2c-0.4-2.3,3.2-6.1,3.2-6.1c0.3-0.3,0.5,0,0.5,0
      S72.8,36.7,72.4,37.7z"/>
    <path class="st0" d="M129.2,37.4c0,0,13.4-24.6,15.9-29.1c2.5-4.5,0.2-5.4,0.2-5.4c-2-1.1-2.8,2.3-2.8,2.3l-14.9,27.9
      c-0.9,1.7-2.7,0.5-2.7,0.5c-3.1-3.7-2.1-11.1-2.1-11.1c0.9-9.5,5.2-19.7,5.2-19.7c0.7-1.8-0.9-2.6-2.2-2.9
      c-1.3-0.2-1.4,3.3-1.4,3.3s-3.6,12.2-4.5,22.2c-0.9,10.1,5.8,11.1,5.8,11.1c-1.4,1.7-7,15.7-7.7,18.4c-0.7,2.6-1.4,5.9,0.9,6.6
      c2.3,0.7,2.1-3.9,2.1-3.9c0-0.8,1.3-5.2,1.3-5.2C123.2,48.6,129.2,37.4,129.2,37.4z"/>
    <path class="st0" d="M143.9,32.4c-1.7-1.4-5.6,2.2-7.7,8c-2.1,5.8,1.3,7.3,2.7,6.1c1.4-1.2,7.2-6.7,5.1-11.9
      C144,34.6,145.6,33.8,143.9,32.4z M140.6,41.2c-1.1,1.2-2.3,2.5-2,1.1c0.3-1.4,2-4.1,2.2-4.2c0.2,0,0.3,0,0.3,0
      S141.7,39.9,140.6,41.2z"/>
    <path class="st0" d="M155.5,47.3c-1.1,0.3-2.2,0.5-3-0.8c-0.8-1.2,0.7-5.3,1.7-7.3c1-1.9,1.3-1.5-0.2-2.9c-1.5-1.4-2-0.1-2-0.1
      s-2.2,6-2.8,6.8c-0.6,0.8-0.5-0.4-0.5-0.4l2.1-7.1c0.2-0.6-0.4-0.9-0.4-0.9c-2.3-1.5-2.6,0.1-2.9,1.7c-0.3,1.5-0.1,0.5-1.2,4.3
      c-1.1,3.8-1.1,4.5-1.1,4.5c1.1,5.9,4.8,1.3,4.8,1.3c0.7,4.2,5.3,3,6.2,2.5C157,48.5,156.6,47,155.5,47.3z"/>
    <path class="st0" d="M171.4,19.6c0,0-1.1-2.1-2.6-1.4l-0.7,1.8l-10.5,27.7c0,0-1.4,2.9,1,3.3c0,0,0.8,1,2.2-2.8
      c1.4-3.8,10-25.1,10-25.1S171.9,20.7,171.4,19.6z"/>
    <path class="st0" d="M156.1,55.6c0,0-4.1,0.4-1.7,3.2c2.4,2.8,3.5,1.3,3.8,0.3C158.4,58.1,158.9,56.2,156.1,55.6z"/>
  </g>
</g>
</svg>
